HIERARCHY
ROOT root
{
	OFFSET 0.000000 0.000000 0.000000
	CHANNELS 6 Xposition Yposition Zposition Zrotation Yrotation Xrotation
	JOINT lhip
	{
		OFFSET 0.058581 -0.082280 -0.017664
		CHANNELS 3 Zrotation Yrotation Xrotation
		JOINT lknee
		{
			OFFSET 0.043451 -0.386469 0.008037
			CHANNELS 3 Zrotation Yrotation Xrotation
			JOINT lankle
			{
				OFFSET -0.014790 -0.426874 -0.037428
				CHANNELS 3 Zrotation Yrotation Xrotation
				JOINT ltoe
				{
					OFFSET 0.041054 -0.060286 0.122042
					CHANNELS 3 Zrotation Yrotation Xrotation
					End Site
					{
						OFFSET 0.000000 0.000000 0.000000
					}
				}
			}
		}
	}
	JOINT rhip
	{
		OFFSET -0.060310 -0.090513 -0.013543
		CHANNELS 3 Zrotation Yrotation Xrotation
		JOINT rknee
		{
			OFFSET -0.043257 -0.383688 -0.004843
			CHANNELS 3 Zrotation Yrotation Xrotation
			JOINT rankle
			{
				OFFSET 0.019056 -0.420046 -0.034562
				CHANNELS 3 Zrotation Yrotation Xrotation
				JOINT rtoe
				{
					OFFSET -0.034840 -0.062106 0.130323
					CHANNELS 3 Zrotation Yrotation Xrotation
					End Site
					{
						OFFSET 0.000000 0.000000 0.000000
					}
				}
			}
		}
	}
	JOINT lowerback
	{
		OFFSET 0.004439 0.124404 -0.038385
		CHANNELS 3 Zrotation Yrotation Xrotation
		JOINT upperback
		{
			OFFSET 0.004488 0.137956 0.026820
			CHANNELS 3 Zrotation Yrotation Xrotation
			JOINT chest
			{
				OFFSET -0.002265 0.056032 0.002855
				CHANNELS 3 Zrotation Yrotation Xrotation
				JOINT lowerneck
				{
					OFFSET -0.013390 0.211636 -0.033468
					CHANNELS 3 Zrotation Yrotation Xrotation
					JOINT upperneck
					{
						OFFSET 0.010113 0.088937 0.050410
						CHANNELS 3 Zrotation Yrotation Xrotation
						End Site
						{
							OFFSET 0.000000 0.000000 0.000000
						}
					}
				}
				JOINT lclavicle
				{
					OFFSET 0.071702 0.114000 -0.018898
					CHANNELS 3 Zrotation Yrotation Xrotation
					JOINT lshoulder
					{
						OFFSET 0.122921 0.045205 -0.019046
						CHANNELS 3 Zrotation Yrotation Xrotation
						JOINT lelbow
						{
							OFFSET 0.255332 -0.015649 -0.022946
							CHANNELS 3 Zrotation Yrotation Xrotation
							JOINT lwrist
							{
								OFFSET 0.265709 0.012698 -0.007375
								CHANNELS 3 Zrotation Yrotation Xrotation
								End Site
								{
									OFFSET 0.000000 0.000000 0.000000
								}
							}
						}
					}
				}
				JOINT rclavicle
				{
					OFFSET -0.082954 0.112472 -0.023707
					CHANNELS 3 Zrotation Yrotation Xrotation
					JOINT rshoulder
					{
						OFFSET -0.113228 0.046853 -0.008472
						CHANNELS 3 Zrotation Yrotation Xrotation
						JOINT relbow
						{
							OFFSET -0.260127 -0.014369 -0.031269
							CHANNELS 3 Zrotation Yrotation Xrotation
							JOINT rwrist
							{
								OFFSET -0.269108 0.006794 -0.006027
								CHANNELS 3 Zrotation Yrotation Xrotation
								End Site
								{
									OFFSET 0.000000 0.000000 0.000000
								}
							}
						}
					}
				}
			}
		}
	}
}
MOTION
Frames: 8
Frame Time: 0.033333
0.488643 0.228951 0.999503 110.576439 1.316805 109.034437 6.023262 -6.775818 -25.539765 4.109658 8.944657 0.389453 -6.610217 -6.480409 1.183323 0.000000 -0.000000 0.000000 -3.732878 -4.950253 -16.308515 -5.459359 -18.879002 3.025166 8.337077 2.631184 -3.514262 0.000000 -0.000000 0.000000 1.639748 3.868128 7.641686 -1.141165 1.322985 -8.218412 2.913739 2.209365 -1.600595 0.760081 32.603319 1.478703 -9.356398 30.056211 -2.475025 5.085498 12.528944 -9.681491 -62.789832 -18.299940 4.310063 164.322054 -57.728887 -122.981707 -50.191655 -34.477267 -11.773029 -7.270487 5.075027 -4.421836 75.574779 48.882780 30.113481 -152.301440 70.897051 -113.591459 53.497028 8.846534 -6.644250 
0.490975 0.225242 0.999655 108.919797 1.420491 108.390741 6.021836 -6.195993 -24.278029 4.197906 9.452486 0.047473 -6.621353 -5.927482 1.086093 0.000000 -0.000000 0.000000 -3.771921 -4.413598 -15.983502 -5.381091 -18.186210 3.153505 8.451003 3.072919 -3.663388 0.000000 -0.000000 0.000000 1.773125 3.801961 7.332743 -0.935977 1.517941 -8.341689 2.994584 1.720231 -1.751601 0.861986 33.359309 2.337460 -9.566781 31.213762 -2.103292 4.921744 12.286563 -9.272347 -63.105306 -18.289956 4.327140 164.429848 -57.817919 -123.296342 -50.609549 -34.248428 -11.437231 -6.981259 4.335590 -4.556028 76.015991 47.920529 30.538220 -154.870130 70.848920 -116.511500 53.804810 9.217153 -6.840478 
0.493350 0.220310 0.999269 107.492047 1.422468 107.937340 6.393668 -6.224898 -23.316768 4.076773 10.358462 -0.225573 -6.513991 -5.237130 1.076628 0.000000 -0.000000 0.000000 -3.817568 -3.798786 -15.709775 -5.156830 -17.391519 3.045434 8.100718 2.978800 -3.914571 0.000000 -0.000000 0.000000 1.359054 4.255547 4.482554 -0.227729 1.719164 -4.167175 3.022934 1.156494 -2.865397 0.859072 34.163620 2.159997 -10.382314 31.794469 -1.574273 4.646205 11.832197 -9.129632 -63.681691 -19.148194 4.585225 163.545320 -58.077790 -122.589007 -51.333771 -34.115472 -11.063266 -6.642535 3.550257 -4.772818 75.689735 47.963730 30.865909 -155.313927 70.362774 -116.929819 55.610267 9.907741 -7.449145 
0.497233 0.215502 0.999494 106.322702 1.451503 107.302162 6.301216 -5.066966 -22.246555 4.091444 10.490248 -0.218593 -6.792785 -5.404201 0.967230 0.000000 -0.000000 0.000000 -3.573319 -4.135572 -15.197288 -5.115891 -16.982315 3.138922 8.247122 4.202282 -4.014577 0.000000 -0.000000 0.000000 1.777750 3.461009 5.124391 -0.596903 1.080540 -6.266657 2.846758 1.644180 -2.591788 1.377108 35.055526 3.709600 -9.859266 32.699038 -1.351887 4.866472 12.091124 -8.996753 -63.466498 -18.056541 4.260978 164.790505 -58.059409 -123.958410 -50.936656 -34.237307 -11.561126 -6.396853 3.576257 -4.214544 76.568280 47.064967 30.840633 -158.656617 70.279865 -120.189800 55.291002 10.033735 -7.367023 
0.500694 0.210029 0.999848 105.697541 1.543035 107.022099 6.677071 -4.444262 -21.798610 4.028158 10.695079 0.063744 -6.919699 -5.589156 0.796577 0.000000 -0.000000 0.000000 -3.171132 -4.033092 -14.921290 -5.104509 -16.648951 3.184852 8.114609 4.541557 -4.251915 0.000000 -0.000000 0.000000 1.880092 2.983958 4.646996 -0.503897 0.784813 -7.035369 2.826459 1.670151 -2.829121 1.873557 35.518490 5.068853 -9.640869 33.445578 -0.811391 4.807583 12.247659 -8.695227 -63.479447 -17.473059 4.187010 165.593085 -58.182180 -124.722916 -50.619762 -34.248596 -11.780668 -6.190757 3.356210 -3.775482 77.026155 46.487073 30.992608 -161.077195 70.102111 -122.358029 55.481889 10.183451 -7.241965 
0.504273 0.204729 1.000412 105.168762 1.540195 106.361069 6.894354 -4.156002 -20.736654 4.049737 10.722169 -0.035461 -7.105022 -5.364688 0.711863 0.000000 -0.000000 0.000000 -2.957255 -3.707137 -14.097961 -5.035989 -16.470447 3.094125 8.083542 4.711509 -4.444819 0.000000 -0.000000 0.000000 2.203055 3.078966 4.214959 -0.685355 0.817492 -6.853277 2.447880 1.329232 -3.541061 2.688246 35.802065 6.308374 -9.332240 33.741769 -0.081689 4.702151 12.198507 -8.317177 -63.290205 -17.364965 4.016823 165.738928 -58.414649 -124.850966 -51.094813 -34.380093 -11.580283 -6.063750 2.779692 -3.689094 77.753107 45.749768 31.363573 -163.154314 70.058014 -124.121469 55.702652 10.898380 -7.557060 
0.508195 0.199855 1.000381 104.956746 1.555478 105.636801 7.088568 -3.907918 -19.602378 4.108328 10.541815 -0.230105 -7.198212 -5.238460 0.671714 0.000000 -0.000000 0.000000 -2.684298 -3.550698 -13.112893 -4.921603 -16.339627 2.980899 7.912320 4.710864 -4.755592 0.000000 -0.000000 0.000000 2.425370 3.074708 3.566978 -0.759329 0.802465 -6.680943 2.176091 1.233674 -3.845145 3.405570 36.010485 7.222887 -8.912753 33.934595 0.763788 4.558107 12.384336 -8.212284 -63.311134 -17.205323 4.114496 166.104454 -58.759960 -125.385706 -51.053148 -34.230668 -11.636087 -5.846860 2.312504 -3.626143 78.067374 45.188866 31.663162 -164.912446 69.831424 -125.898705 55.598333 11.117752 -7.875154 
0.512443 0.194860 1.000081 105.012322 1.550491 104.948849 7.316858 -3.549964 -18.656333 4.099739 10.346723 -0.233444 -7.389468 -5.350547 0.602285 0.000000 -0.000000 0.000000 -2.373137 -3.646292 -12.139104 -4.816423 -16.394991 3.003335 7.685585 4.962716 -5.172973 0.000000 -0.000000 0.000000 2.326355 3.102914 2.658205 -0.710950 0.731697 -6.462080 2.132483 1.267696 -4.090355 4.020824 36.146408 8.448265 -8.622800 34.099972 1.158918 4.505725 12.493812 -8.045384 -63.408604 -16.970210 3.968170 166.585235 -58.870733 -125.865492 -51.654539 -34.016471 -11.179974 -5.769213 2.033318 -3.418725 78.181716 44.826868 31.502861 -166.735316 69.650309 -127.601987 55.389988 11.216286 -7.987147 
